<?xml version="1.0" encoding="utf-8"?>
<!-- Generator: Adobe Illustrator 27.5.0, SVG Export Plug-In . SVG Version: 6.00 Build 0)  -->
<svg version="1.1" xmlns="http://www.w3.org/2000/svg" xmlns:xlink="http://www.w3.org/1999/xlink" x="0px" y="0px"
	 viewBox="0 0 500 500" style="enable-background:new 0 0 500 500;" xml:space="preserve">
<g id="Background_Simple">
	<g>
		<path style="fill:#92E3A9;" d="M484.63,234.087c-0.557-38.978-15.809-76.605-39.04-105.651
			c-13.59-16.992-29.943-31.878-47.797-43.469c-18.529-12.03-38.672-25.502-61.029-27.57c-5.518-0.51-11.176-0.266-16.621,1.364
			c-20.849,6.24,20.407,28.48,25.799,31.732c-57.664-24.762-117.35-49.921-180.384-47.548c-12.154,0.458-24.762,2.1-35.447,8.873
			c-10.685,6.772-18.955,19.835-17.364,32.782c1.315,10.703,8.514,22.66,1.762,31.025c-1.931,2.392-4.668,3.806-7.355,5.034
			c-13.789,6.3-28.675,9.604-41.737,17.618c-20.228,12.411-34.033,35.214-40.431,59.207c-6.398,23.993-6.091,49.204-3.58,73.61
			c4.727,45.933,17.58,91.501,43.591,127.222c37.154,51.023,98.068,77.012,159.081,81.295
			c73.829,5.182,153.875-21.962,202.695-84.789c7.241-9.318,13.88-19.641,16.513-31.327c2.633-11.686,0.547-25.002-7.558-32.676
			c-2.184-2.068-4.996-4.261-4.759-7.471c0.321-4.343,5.517-5.811,9.478-6.723c25.988-5.982,40.85-37.633,43.531-66.097
			C484.498,245.034,484.708,239.547,484.63,234.087z"/>
		<path style="opacity:0.7;fill:#FFFFFF;" d="M484.63,234.087c-0.557-38.978-15.809-76.605-39.04-105.651
			c-13.59-16.992-29.943-31.878-47.797-43.469c-18.529-12.03-38.672-25.502-61.029-27.57c-5.518-0.51-11.176-0.266-16.621,1.364
			c-20.849,6.24,20.407,28.48,25.799,31.732c-57.664-24.762-117.35-49.921-180.384-47.548c-12.154,0.458-24.762,2.1-35.447,8.873
			c-10.685,6.772-18.955,19.835-17.364,32.782c1.315,10.703,8.514,22.66,1.762,31.025c-1.931,2.392-4.668,3.806-7.355,5.034
			c-13.789,6.3-28.675,9.604-41.737,17.618c-20.228,12.411-34.033,35.214-40.431,59.207c-6.398,23.993-6.091,49.204-3.58,73.61
			c4.727,45.933,17.58,91.501,43.591,127.222c37.154,51.023,98.068,77.012,159.081,81.295
			c73.829,5.182,153.875-21.962,202.695-84.789c7.241-9.318,13.88-19.641,16.513-31.327c2.633-11.686,0.547-25.002-7.558-32.676
			c-2.184-2.068-4.996-4.261-4.759-7.471c0.321-4.343,5.517-5.811,9.478-6.723c25.988-5.982,40.85-37.633,43.531-66.097
			C484.498,245.034,484.708,239.547,484.63,234.087z"/>
	</g>
</g>
<g id="Buildings">
	<g style="opacity:0.3;">
		<polyline style="fill:none;stroke:#000000;stroke-linecap:round;stroke-miterlimit:10;" points="12.84,352.364 27.684,352.364 
			27.684,283.044 47.825,283.044 47.825,250.656 85.929,250.656 85.929,314.863 95.727,314.863 95.727,190.335 137.642,190.335 
			137.642,244.974 163.771,244.974 163.771,197.814 208.408,197.814 208.408,304.067 269.375,304.067 269.375,240.575 
			309.2,240.575 309.2,304.635 333.608,304.635 333.608,312.022 348.849,312.022 348.849,262.483 359.192,262.483 359.192,312.022 
			366.269,312.022 366.269,259.747 377.7,259.747 377.7,309.749 391.853,309.749 391.853,225.656 417.438,225.656 417.438,280.771 
			432.135,280.771 432.135,198.382 468.062,198.382 468.062,364.864 		"/>
		<g>
			
				<rect x="33.672" y="294.408" style="fill:none;stroke:#000000;stroke-linecap:round;stroke-miterlimit:10;" width="4.355" height="5.682"/>
			
				<rect x="40.748" y="294.408" style="fill:none;stroke:#000000;stroke-linecap:round;stroke-miterlimit:10;" width="4.355" height="5.682"/>
			
				<rect x="47.825" y="294.408" style="fill:none;stroke:#000000;stroke-linecap:round;stroke-miterlimit:10;" width="4.355" height="5.682"/>
			
				<rect x="54.901" y="294.408" style="fill:none;stroke:#000000;stroke-linecap:round;stroke-miterlimit:10;" width="4.355" height="5.682"/>
			
				<rect x="61.978" y="294.408" style="fill:none;stroke:#000000;stroke-linecap:round;stroke-miterlimit:10;" width="4.355" height="5.682"/>
			
				<rect x="69.054" y="294.408" style="fill:none;stroke:#000000;stroke-linecap:round;stroke-miterlimit:10;" width="4.355" height="5.682"/>
		</g>
		<g>
			
				<rect x="102.259" y="252.361" style="fill:none;stroke:#000000;stroke-linecap:round;stroke-miterlimit:10;" width="4.355" height="5.682"/>
			
				<rect x="109.336" y="252.361" style="fill:none;stroke:#000000;stroke-linecap:round;stroke-miterlimit:10;" width="4.355" height="5.682"/>
			
				<rect x="116.412" y="252.361" style="fill:none;stroke:#000000;stroke-linecap:round;stroke-miterlimit:10;" width="4.355" height="5.682"/>
			
				<rect x="123.489" y="252.361" style="fill:none;stroke:#000000;stroke-linecap:round;stroke-miterlimit:10;" width="4.355" height="5.682"/>
			
				<rect x="102.259" y="242.133" style="fill:none;stroke:#000000;stroke-linecap:round;stroke-miterlimit:10;" width="4.355" height="5.682"/>
			
				<rect x="109.336" y="242.133" style="fill:none;stroke:#000000;stroke-linecap:round;stroke-miterlimit:10;" width="4.355" height="5.682"/>
			
				<rect x="116.412" y="242.133" style="fill:none;stroke:#000000;stroke-linecap:round;stroke-miterlimit:10;" width="4.355" height="5.682"/>
			
				<rect x="123.489" y="242.133" style="fill:none;stroke:#000000;stroke-linecap:round;stroke-miterlimit:10;" width="4.355" height="5.682"/>
			
				<rect x="102.259" y="231.906" style="fill:none;stroke:#000000;stroke-linecap:round;stroke-miterlimit:10;" width="4.355" height="5.682"/>
			
				<rect x="109.336" y="231.906" style="fill:none;stroke:#000000;stroke-linecap:round;stroke-miterlimit:10;" width="4.355" height="5.682"/>
			
				<rect x="116.412" y="231.906" style="fill:none;stroke:#000000;stroke-linecap:round;stroke-miterlimit:10;" width="4.355" height="5.682"/>
			
				<rect x="123.489" y="231.906" style="fill:none;stroke:#000000;stroke-linecap:round;stroke-miterlimit:10;" width="4.355" height="5.682"/>
			
				<rect x="102.259" y="221.678" style="fill:none;stroke:#000000;stroke-linecap:round;stroke-miterlimit:10;" width="4.355" height="5.682"/>
			
				<rect x="109.336" y="221.678" style="fill:none;stroke:#000000;stroke-linecap:round;stroke-miterlimit:10;" width="4.355" height="5.682"/>
			
				<rect x="116.412" y="221.678" style="fill:none;stroke:#000000;stroke-linecap:round;stroke-miterlimit:10;" width="4.355" height="5.682"/>
			
				<rect x="123.489" y="221.678" style="fill:none;stroke:#000000;stroke-linecap:round;stroke-miterlimit:10;" width="4.355" height="5.682"/>
			
				<rect x="102.259" y="211.451" style="fill:none;stroke:#000000;stroke-linecap:round;stroke-miterlimit:10;" width="4.355" height="5.682"/>
			
				<rect x="109.336" y="211.451" style="fill:none;stroke:#000000;stroke-linecap:round;stroke-miterlimit:10;" width="4.355" height="5.682"/>
			
				<rect x="116.412" y="211.451" style="fill:none;stroke:#000000;stroke-linecap:round;stroke-miterlimit:10;" width="4.355" height="5.682"/>
			
				<rect x="123.489" y="211.451" style="fill:none;stroke:#000000;stroke-linecap:round;stroke-miterlimit:10;" width="4.355" height="5.682"/>
			
				<rect x="130.566" y="252.361" style="fill:none;stroke:#000000;stroke-linecap:round;stroke-miterlimit:10;" width="4.355" height="5.682"/>
			
				<rect x="137.642" y="252.361" style="fill:none;stroke:#000000;stroke-linecap:round;stroke-miterlimit:10;" width="4.355" height="5.682"/>
		</g>
		<g>
			
				<rect x="102.259" y="263.725" style="fill:none;stroke:#000000;stroke-linecap:round;stroke-miterlimit:10;" width="4.355" height="5.682"/>
			
				<rect x="109.336" y="263.725" style="fill:none;stroke:#000000;stroke-linecap:round;stroke-miterlimit:10;" width="4.355" height="5.682"/>
			
				<rect x="116.412" y="263.725" style="fill:none;stroke:#000000;stroke-linecap:round;stroke-miterlimit:10;" width="4.355" height="5.682"/>
			
				<rect x="123.489" y="263.725" style="fill:none;stroke:#000000;stroke-linecap:round;stroke-miterlimit:10;" width="4.355" height="5.682"/>
			
				<rect x="130.566" y="263.725" style="fill:none;stroke:#000000;stroke-linecap:round;stroke-miterlimit:10;" width="4.355" height="5.682"/>
			
				<rect x="137.642" y="263.725" style="fill:none;stroke:#000000;stroke-linecap:round;stroke-miterlimit:10;" width="4.355" height="5.682"/>
		</g>
		<g>
			
				<rect x="33.672" y="306.34" style="fill:none;stroke:#000000;stroke-linecap:round;stroke-miterlimit:10;" width="4.355" height="5.682"/>
			
				<rect x="40.748" y="306.34" style="fill:none;stroke:#000000;stroke-linecap:round;stroke-miterlimit:10;" width="4.355" height="5.682"/>
			
				<rect x="47.825" y="306.34" style="fill:none;stroke:#000000;stroke-linecap:round;stroke-miterlimit:10;" width="4.355" height="5.682"/>
			
				<rect x="54.901" y="306.34" style="fill:none;stroke:#000000;stroke-linecap:round;stroke-miterlimit:10;" width="4.355" height="5.682"/>
			
				<rect x="61.978" y="306.34" style="fill:none;stroke:#000000;stroke-linecap:round;stroke-miterlimit:10;" width="4.355" height="5.682"/>
			
				<rect x="69.054" y="306.34" style="fill:none;stroke:#000000;stroke-linecap:round;stroke-miterlimit:10;" width="4.355" height="5.682"/>
		</g>
		<g>
			
				<rect x="33.672" y="318.272" style="fill:none;stroke:#000000;stroke-linecap:round;stroke-miterlimit:10;" width="4.355" height="5.682"/>
			
				<rect x="40.748" y="318.272" style="fill:none;stroke:#000000;stroke-linecap:round;stroke-miterlimit:10;" width="4.355" height="5.682"/>
			
				<rect x="47.825" y="318.272" style="fill:none;stroke:#000000;stroke-linecap:round;stroke-miterlimit:10;" width="4.355" height="5.682"/>
			
				<rect x="54.901" y="318.272" style="fill:none;stroke:#000000;stroke-linecap:round;stroke-miterlimit:10;" width="4.355" height="5.682"/>
			
				<rect x="61.978" y="318.272" style="fill:none;stroke:#000000;stroke-linecap:round;stroke-miterlimit:10;" width="4.355" height="5.682"/>
			
				<rect x="69.054" y="318.272" style="fill:none;stroke:#000000;stroke-linecap:round;stroke-miterlimit:10;" width="4.355" height="5.682"/>
		</g>
		<g>
			
				<rect x="33.672" y="330.204" style="fill:none;stroke:#000000;stroke-linecap:round;stroke-miterlimit:10;" width="4.355" height="5.682"/>
			
				<rect x="40.748" y="330.204" style="fill:none;stroke:#000000;stroke-linecap:round;stroke-miterlimit:10;" width="4.355" height="5.682"/>
			
				<rect x="47.825" y="330.204" style="fill:none;stroke:#000000;stroke-linecap:round;stroke-miterlimit:10;" width="4.355" height="5.682"/>
			
				<rect x="54.901" y="330.204" style="fill:none;stroke:#000000;stroke-linecap:round;stroke-miterlimit:10;" width="4.355" height="5.682"/>
			
				<rect x="61.978" y="330.204" style="fill:none;stroke:#000000;stroke-linecap:round;stroke-miterlimit:10;" width="4.355" height="5.682"/>
			
				<rect x="69.054" y="330.204" style="fill:none;stroke:#000000;stroke-linecap:round;stroke-miterlimit:10;" width="4.355" height="5.682"/>
		</g>
		<g>
			
				<rect x="33.672" y="342.136" style="fill:none;stroke:#000000;stroke-linecap:round;stroke-miterlimit:10;" width="4.355" height="5.682"/>
			
				<rect x="40.748" y="342.136" style="fill:none;stroke:#000000;stroke-linecap:round;stroke-miterlimit:10;" width="4.355" height="5.682"/>
			
				<rect x="47.825" y="342.136" style="fill:none;stroke:#000000;stroke-linecap:round;stroke-miterlimit:10;" width="4.355" height="5.682"/>
			
				<rect x="54.901" y="342.136" style="fill:none;stroke:#000000;stroke-linecap:round;stroke-miterlimit:10;" width="4.355" height="5.682"/>
			
				<rect x="61.978" y="342.136" style="fill:none;stroke:#000000;stroke-linecap:round;stroke-miterlimit:10;" width="4.355" height="5.682"/>
			
				<rect x="69.054" y="342.136" style="fill:none;stroke:#000000;stroke-linecap:round;stroke-miterlimit:10;" width="4.355" height="5.682"/>
		</g>
		
			<rect x="445.743" y="210.314" style="fill:none;stroke:#000000;stroke-linecap:round;stroke-miterlimit:10;" width="4.355" height="5.682"/>
		
			<rect x="452.82" y="210.314" style="fill:none;stroke:#000000;stroke-linecap:round;stroke-miterlimit:10;" width="4.355" height="5.682"/>
		
			<rect x="459.897" y="210.314" style="fill:none;stroke:#000000;stroke-linecap:round;stroke-miterlimit:10;" width="4.355" height="5.682"/>
		
			<rect x="445.743" y="224.519" style="fill:none;stroke:#000000;stroke-linecap:round;stroke-miterlimit:10;" width="4.355" height="5.682"/>
		
			<rect x="452.82" y="224.519" style="fill:none;stroke:#000000;stroke-linecap:round;stroke-miterlimit:10;" width="4.355" height="5.682"/>
		
			<rect x="459.897" y="224.519" style="fill:none;stroke:#000000;stroke-linecap:round;stroke-miterlimit:10;" width="4.355" height="5.682"/>
		
			<rect x="445.743" y="238.724" style="fill:none;stroke:#000000;stroke-linecap:round;stroke-miterlimit:10;" width="4.355" height="5.682"/>
		
			<rect x="452.82" y="238.724" style="fill:none;stroke:#000000;stroke-linecap:round;stroke-miterlimit:10;" width="4.355" height="5.682"/>
		
			<rect x="459.897" y="238.724" style="fill:none;stroke:#000000;stroke-linecap:round;stroke-miterlimit:10;" width="4.355" height="5.682"/>
		
			<rect x="445.743" y="252.929" style="fill:none;stroke:#000000;stroke-linecap:round;stroke-miterlimit:10;" width="4.355" height="5.682"/>
		
			<rect x="452.82" y="252.929" style="fill:none;stroke:#000000;stroke-linecap:round;stroke-miterlimit:10;" width="4.355" height="5.682"/>
		
			<rect x="459.897" y="252.929" style="fill:none;stroke:#000000;stroke-linecap:round;stroke-miterlimit:10;" width="4.355" height="5.682"/>
		
			<rect x="445.743" y="267.134" style="fill:none;stroke:#000000;stroke-linecap:round;stroke-miterlimit:10;" width="4.355" height="5.682"/>
		
			<rect x="452.82" y="267.134" style="fill:none;stroke:#000000;stroke-linecap:round;stroke-miterlimit:10;" width="4.355" height="5.682"/>
		
			<rect x="459.897" y="267.134" style="fill:none;stroke:#000000;stroke-linecap:round;stroke-miterlimit:10;" width="4.355" height="5.682"/>
		
			<rect x="445.743" y="281.339" style="fill:none;stroke:#000000;stroke-linecap:round;stroke-miterlimit:10;" width="4.355" height="5.682"/>
		
			<rect x="452.82" y="281.339" style="fill:none;stroke:#000000;stroke-linecap:round;stroke-miterlimit:10;" width="4.355" height="5.682"/>
		
			<rect x="459.897" y="281.339" style="fill:none;stroke:#000000;stroke-linecap:round;stroke-miterlimit:10;" width="4.355" height="5.682"/>
		
			<rect x="445.743" y="295.544" style="fill:none;stroke:#000000;stroke-linecap:round;stroke-miterlimit:10;" width="4.355" height="5.682"/>
		
			<rect x="452.82" y="295.544" style="fill:none;stroke:#000000;stroke-linecap:round;stroke-miterlimit:10;" width="4.355" height="5.682"/>
		
			<rect x="459.897" y="295.544" style="fill:none;stroke:#000000;stroke-linecap:round;stroke-miterlimit:10;" width="4.355" height="5.682"/>
		
			<rect x="445.743" y="309.749" style="fill:none;stroke:#000000;stroke-linecap:round;stroke-miterlimit:10;" width="4.355" height="5.682"/>
		
			<rect x="452.82" y="309.749" style="fill:none;stroke:#000000;stroke-linecap:round;stroke-miterlimit:10;" width="4.355" height="5.682"/>
		
			<rect x="459.897" y="309.749" style="fill:none;stroke:#000000;stroke-linecap:round;stroke-miterlimit:10;" width="4.355" height="5.682"/>
		
			<rect x="445.743" y="323.954" style="fill:none;stroke:#000000;stroke-linecap:round;stroke-miterlimit:10;" width="4.355" height="5.682"/>
		
			<rect x="452.82" y="323.954" style="fill:none;stroke:#000000;stroke-linecap:round;stroke-miterlimit:10;" width="4.355" height="5.682"/>
		
			<rect x="399.413" y="238.724" style="fill:none;stroke:#000000;stroke-linecap:round;stroke-miterlimit:10;" width="4.355" height="5.682"/>
		
			<rect x="406.49" y="238.724" style="fill:none;stroke:#000000;stroke-linecap:round;stroke-miterlimit:10;" width="4.355" height="5.682"/>
		
			<rect x="399.413" y="252.929" style="fill:none;stroke:#000000;stroke-linecap:round;stroke-miterlimit:10;" width="4.355" height="5.682"/>
		
			<rect x="406.49" y="252.929" style="fill:none;stroke:#000000;stroke-linecap:round;stroke-miterlimit:10;" width="4.355" height="5.682"/>
		
			<rect x="399.413" y="267.134" style="fill:none;stroke:#000000;stroke-linecap:round;stroke-miterlimit:10;" width="4.355" height="5.682"/>
		
			<rect x="406.49" y="267.134" style="fill:none;stroke:#000000;stroke-linecap:round;stroke-miterlimit:10;" width="4.355" height="5.682"/>
		
			<rect x="399.413" y="281.339" style="fill:none;stroke:#000000;stroke-linecap:round;stroke-miterlimit:10;" width="4.355" height="5.682"/>
		
			<rect x="406.49" y="281.339" style="fill:none;stroke:#000000;stroke-linecap:round;stroke-miterlimit:10;" width="4.355" height="5.682"/>
		
			<rect x="399.413" y="295.544" style="fill:none;stroke:#000000;stroke-linecap:round;stroke-miterlimit:10;" width="4.355" height="5.682"/>
		
			<rect x="406.49" y="295.544" style="fill:none;stroke:#000000;stroke-linecap:round;stroke-miterlimit:10;" width="4.355" height="5.682"/>
		
			<rect x="399.413" y="309.749" style="fill:none;stroke:#000000;stroke-linecap:round;stroke-miterlimit:10;" width="4.355" height="5.682"/>
		
			<rect x="406.49" y="309.749" style="fill:none;stroke:#000000;stroke-linecap:round;stroke-miterlimit:10;" width="4.355" height="5.682"/>
		
			<rect x="399.413" y="323.954" style="fill:none;stroke:#000000;stroke-linecap:round;stroke-miterlimit:10;" width="4.355" height="5.682"/>
		
			<rect x="406.49" y="323.954" style="fill:none;stroke:#000000;stroke-linecap:round;stroke-miterlimit:10;" width="4.355" height="5.682"/>
		
			<rect x="274.693" y="252.929" style="fill:none;stroke:#000000;stroke-linecap:round;stroke-miterlimit:10;" width="4.355" height="5.682"/>
		
			<rect x="281.77" y="252.929" style="fill:none;stroke:#000000;stroke-linecap:round;stroke-miterlimit:10;" width="4.355" height="5.682"/>
		
			<rect x="274.693" y="267.134" style="fill:none;stroke:#000000;stroke-linecap:round;stroke-miterlimit:10;" width="4.355" height="5.682"/>
		
			<rect x="281.77" y="267.134" style="fill:none;stroke:#000000;stroke-linecap:round;stroke-miterlimit:10;" width="4.355" height="5.682"/>
		
			<rect x="274.693" y="281.339" style="fill:none;stroke:#000000;stroke-linecap:round;stroke-miterlimit:10;" width="4.355" height="5.682"/>
		
			<rect x="281.77" y="281.339" style="fill:none;stroke:#000000;stroke-linecap:round;stroke-miterlimit:10;" width="4.355" height="5.682"/>
		
			<rect x="274.693" y="295.544" style="fill:none;stroke:#000000;stroke-linecap:round;stroke-miterlimit:10;" width="4.355" height="5.682"/>
		
			<rect x="281.77" y="295.544" style="fill:none;stroke:#000000;stroke-linecap:round;stroke-miterlimit:10;" width="4.355" height="5.682"/>
		
			<rect x="274.693" y="309.749" style="fill:none;stroke:#000000;stroke-linecap:round;stroke-miterlimit:10;" width="4.355" height="5.682"/>
		
			<rect x="281.77" y="309.749" style="fill:none;stroke:#000000;stroke-linecap:round;stroke-miterlimit:10;" width="4.355" height="5.682"/>
		
			<rect x="274.693" y="323.954" style="fill:none;stroke:#000000;stroke-linecap:round;stroke-miterlimit:10;" width="4.355" height="5.682"/>
		
			<rect x="281.77" y="323.954" style="fill:none;stroke:#000000;stroke-linecap:round;stroke-miterlimit:10;" width="4.355" height="5.682"/>
		
			<rect x="290.718" y="252.929" style="fill:none;stroke:#000000;stroke-linecap:round;stroke-miterlimit:10;" width="4.355" height="5.682"/>
		
			<rect x="297.795" y="252.929" style="fill:none;stroke:#000000;stroke-linecap:round;stroke-miterlimit:10;" width="4.355" height="5.682"/>
		
			<rect x="290.718" y="267.134" style="fill:none;stroke:#000000;stroke-linecap:round;stroke-miterlimit:10;" width="4.355" height="5.682"/>
		
			<rect x="297.795" y="267.134" style="fill:none;stroke:#000000;stroke-linecap:round;stroke-miterlimit:10;" width="4.355" height="5.682"/>
		
			<rect x="290.718" y="281.339" style="fill:none;stroke:#000000;stroke-linecap:round;stroke-miterlimit:10;" width="4.355" height="5.682"/>
		
			<rect x="297.795" y="281.339" style="fill:none;stroke:#000000;stroke-linecap:round;stroke-miterlimit:10;" width="4.355" height="5.682"/>
		
			<rect x="290.718" y="295.544" style="fill:none;stroke:#000000;stroke-linecap:round;stroke-miterlimit:10;" width="4.355" height="5.682"/>
		
			<rect x="297.795" y="295.544" style="fill:none;stroke:#000000;stroke-linecap:round;stroke-miterlimit:10;" width="4.355" height="5.682"/>
		
			<rect x="290.718" y="309.749" style="fill:none;stroke:#000000;stroke-linecap:round;stroke-miterlimit:10;" width="4.355" height="5.682"/>
		
			<rect x="297.795" y="309.749" style="fill:none;stroke:#000000;stroke-linecap:round;stroke-miterlimit:10;" width="4.355" height="5.682"/>
		
			<rect x="290.718" y="323.954" style="fill:none;stroke:#000000;stroke-linecap:round;stroke-miterlimit:10;" width="4.355" height="5.682"/>
		
			<rect x="297.795" y="323.954" style="fill:none;stroke:#000000;stroke-linecap:round;stroke-miterlimit:10;" width="4.355" height="5.682"/>
		
			<rect x="179.482" y="210.314" style="fill:none;stroke:#000000;stroke-linecap:round;stroke-miterlimit:10;" width="4.355" height="5.682"/>
		
			<rect x="186.559" y="210.314" style="fill:none;stroke:#000000;stroke-linecap:round;stroke-miterlimit:10;" width="4.355" height="5.682"/>
		
			<rect x="179.482" y="224.519" style="fill:none;stroke:#000000;stroke-linecap:round;stroke-miterlimit:10;" width="4.355" height="5.682"/>
		
			<rect x="186.559" y="224.519" style="fill:none;stroke:#000000;stroke-linecap:round;stroke-miterlimit:10;" width="4.355" height="5.682"/>
		
			<rect x="179.482" y="238.724" style="fill:none;stroke:#000000;stroke-linecap:round;stroke-miterlimit:10;" width="4.355" height="5.682"/>
		
			<rect x="186.559" y="238.724" style="fill:none;stroke:#000000;stroke-linecap:round;stroke-miterlimit:10;" width="4.355" height="5.682"/>
		
			<rect x="179.482" y="252.929" style="fill:none;stroke:#000000;stroke-linecap:round;stroke-miterlimit:10;" width="4.355" height="5.682"/>
		
			<rect x="186.559" y="252.929" style="fill:none;stroke:#000000;stroke-linecap:round;stroke-miterlimit:10;" width="4.355" height="5.682"/>
		
			<rect x="179.482" y="267.134" style="fill:none;stroke:#000000;stroke-linecap:round;stroke-miterlimit:10;" width="4.355" height="5.682"/>
		
			<rect x="186.559" y="267.134" style="fill:none;stroke:#000000;stroke-linecap:round;stroke-miterlimit:10;" width="4.355" height="5.682"/>
		
			<rect x="179.482" y="281.339" style="fill:none;stroke:#000000;stroke-linecap:round;stroke-miterlimit:10;" width="4.355" height="5.682"/>
		
			<rect x="186.559" y="281.339" style="fill:none;stroke:#000000;stroke-linecap:round;stroke-miterlimit:10;" width="4.355" height="5.682"/>
		
			<rect x="179.482" y="295.544" style="fill:none;stroke:#000000;stroke-linecap:round;stroke-miterlimit:10;" width="4.355" height="5.682"/>
		
			<rect x="186.559" y="295.544" style="fill:none;stroke:#000000;stroke-linecap:round;stroke-miterlimit:10;" width="4.355" height="5.682"/>
		
			<rect x="179.482" y="309.749" style="fill:none;stroke:#000000;stroke-linecap:round;stroke-miterlimit:10;" width="4.355" height="5.682"/>
		
			<rect x="186.559" y="309.749" style="fill:none;stroke:#000000;stroke-linecap:round;stroke-miterlimit:10;" width="4.355" height="5.682"/>
		
			<rect x="179.482" y="323.954" style="fill:none;stroke:#000000;stroke-linecap:round;stroke-miterlimit:10;" width="4.355" height="5.682"/>
		
			<rect x="186.559" y="323.954" style="fill:none;stroke:#000000;stroke-linecap:round;stroke-miterlimit:10;" width="4.355" height="5.682"/>
		
			<rect x="459.897" y="323.954" style="fill:none;stroke:#000000;stroke-linecap:round;stroke-miterlimit:10;" width="4.355" height="5.682"/>
	</g>
</g>
<g id="Clouds">
	<g style="opacity:0.3;">
		<path style="fill:none;stroke:#000000;stroke-linecap:round;stroke-linejoin:round;stroke-miterlimit:10;" d="M301.859,146.184
			c0,0-4.922-9.334-12.049-11.54c-7.128-2.206-11.371,0.17-13.068,2.546c-1.697,2.376-2.036,4.922-2.036,4.922
			s-9.164-2.715-11.88-0.17c-2.715,2.546-1.867,6.279-1.867,6.279s-6.619-1.358-8.146,1.018c-1.527,2.376-1.527,3.564-1.527,3.564
			s-5.601-0.17-6.449,0.849s-1.358,2.036-1.358,2.036l-5.091,1.188h82.31l-5.601-2.036c0,0-2.036-8.146-5.091-10.692
			C306.951,141.602,304.235,142.281,301.859,146.184z"/>
		<path style="fill:none;stroke:#000000;stroke-linecap:round;stroke-linejoin:round;stroke-miterlimit:10;" d="M301.859,146.184
			c0,0-1.018,2.036,0,5.6c0,0-3.055-2.206-5.6-1.358c-2.546,0.848-2.376,3.055-2.376,3.055"/>
		<path style="fill:none;stroke:#000000;stroke-linecap:round;stroke-linejoin:round;stroke-miterlimit:10;" d="M274.706,142.111
			l-0.17,3.734c0,0-3.394-2.206-5.431-0.509c-2.037,1.697-1.358,4.582-1.358,4.582s-2.037,0-2.546,0.679
			c-0.509,0.679-0.509,0.679-0.509,0.679"/>
	</g>
	<g style="opacity:0.3;">
		<path style="fill:none;stroke:#000000;stroke-linecap:round;stroke-linejoin:round;stroke-miterlimit:10;" d="M418.627,68.623
			c0,0-4.922-9.334-12.049-11.54c-7.128-2.206-11.371,0.17-13.068,2.546c-1.697,2.376-2.037,4.922-2.037,4.922
			s-9.164-2.715-11.88-0.17c-2.715,2.546-1.867,6.279-1.867,6.279s-6.619-1.358-8.146,1.018c-1.527,2.376-1.527,3.564-1.527,3.564
			s-5.6-0.17-6.449,0.849c-0.849,1.018-1.358,2.036-1.358,2.036l-5.091,1.188h82.31l-5.6-2.037c0,0-2.036-8.146-5.091-10.692
			C423.719,64.041,421.003,64.72,418.627,68.623z"/>
		<path style="fill:none;stroke:#000000;stroke-linecap:round;stroke-linejoin:round;stroke-miterlimit:10;" d="M418.627,68.623
			c0,0-1.018,2.036,0,5.6c0,0-3.055-2.206-5.6-1.358c-2.546,0.849-2.376,3.055-2.376,3.055"/>
		<path style="fill:none;stroke:#000000;stroke-linecap:round;stroke-linejoin:round;stroke-miterlimit:10;" d="M391.473,64.55
			l-0.17,3.734c0,0-3.394-2.206-5.431-0.509c-2.037,1.697-1.358,4.582-1.358,4.582s-2.037,0-2.546,0.679
			c-0.509,0.679-0.509,0.679-0.509,0.679"/>
	</g>
	<g style="opacity:0.3;">
		<path style="fill:none;stroke:#000000;stroke-linecap:round;stroke-linejoin:round;stroke-miterlimit:10;" d="M261.742,97.71
			c0,0-11.297-21.425-27.658-26.489c-16.361-5.064-26.099,0.39-29.995,5.843c-3.895,5.454-4.674,11.297-4.674,11.297
			s-21.035-6.233-27.268-0.39c-6.233,5.843-4.285,14.413-4.285,14.413s-15.192-3.116-18.698,2.337
			c-3.506,5.454-3.506,8.18-3.506,8.18s-12.855-0.389-14.803,1.948c-1.948,2.337-3.116,4.674-3.116,4.674l-11.686,2.727h188.928
			l-12.855-4.674c0,0-4.674-18.698-11.686-24.541C273.428,87.192,267.196,88.75,261.742,97.71z"/>
		<path style="fill:none;stroke:#000000;stroke-linecap:round;stroke-linejoin:round;stroke-miterlimit:10;" d="M261.742,97.71
			c0,0-2.337,4.674,0,12.855c0,0-7.012-5.064-12.855-3.116c-5.843,1.948-5.454,7.012-5.454,7.012"/>
		<path style="fill:none;stroke:#000000;stroke-linecap:round;stroke-linejoin:round;stroke-miterlimit:10;" d="M199.415,88.361
			l-0.39,8.57c0,0-7.791-5.064-12.465-1.169c-4.674,3.896-3.116,10.518-3.116,10.518s-4.674,0-5.843,1.558
			c-1.169,1.558-1.169,1.558-1.169,1.558"/>
	</g>
</g>
<g id="Lamp">
	<g>
		<polygon style="fill:#263238;" points="86.167,448.455 71.68,448.455 73.853,80.705 83.994,80.705 		"/>
		<polygon style="fill:#263238;" points="90.225,78.924 66.695,78.924 63.754,44.365 93.166,44.365 		"/>
		<polygon style="fill:#FFFFFF;" points="87.596,78.924 69.325,78.924 67.041,44.365 89.88,44.365 		"/>
		<rect x="61.449" y="41.179" style="fill:#263238;" width="34.194" height="5.763"/>
		<rect x="64.138" y="75.176" style="fill:#263238;" width="28.815" height="7.113"/>
		<rect x="66.06" y="37.337" style="fill:#263238;" width="24.588" height="3.842"/>
		<rect x="75.698" y="31.608" style="fill:#263238;" width="4.226" height="5.763"/>
		<rect x="66.465" y="426.477" style="fill:#263238;" width="25.497" height="30.951"/>
	</g>
</g>
<g id="Bushes">
	<g>
		<path style="fill:#92E3A9;" d="M35.909,456.846c-0.996-9.092,6.398-18.876,15.761-19.327c8.401-0.404,17.635,5.247,24.635,0.585
			c5.725-3.813,5.849-11.944,6.492-18.793c0.639-6.801,2.525-13.746,7-18.907c4.475-5.162,11.98-8.093,18.391-5.732
			c12.907,4.754,13.708,25.935,26.898,29.834c9.13,2.699,18.652-4.891,28.022-3.211c11.477,2.058,16.658,14.751,25.462,20.961
			c0.91,0.642,4.742,3.411,9.127,6.614c3.68,2.688,7.746,5.678,10.806,7.977H35.909z"/>
		<path style="opacity:0.4;fill:#FFFFFF;" d="M35.909,456.846c-0.996-9.092,6.398-18.876,15.761-19.327
			c8.401-0.404,17.635,5.247,24.635,0.585c5.725-3.813,5.849-11.944,6.492-18.793c0.639-6.801,2.525-13.746,7-18.907
			c4.475-5.162,11.98-8.093,18.391-5.732c12.907,4.754,13.708,25.935,26.898,29.834c9.13,2.699,18.652-4.891,28.022-3.211
			c11.477,2.058,16.658,14.751,25.462,20.961c0.91,0.642,4.742,3.411,9.127,6.614c3.68,2.688,7.746,5.678,10.806,7.977H35.909z"/>
		<g>
			
				<line style="fill:none;stroke:#263238;stroke-linecap:round;stroke-linejoin:round;stroke-miterlimit:10;" x1="143.021" y1="456.099" x2="150.262" y2="434.933"/>
			
				<line style="fill:none;stroke:#263238;stroke-linecap:round;stroke-linejoin:round;stroke-miterlimit:10;" x1="117.4" y1="456.656" x2="102.361" y2="415.996"/>
			
				<line style="fill:none;stroke:#263238;stroke-linecap:round;stroke-linejoin:round;stroke-miterlimit:10;" x1="62.815" y1="456.656" x2="53.903" y2="448.301"/>
			
				<line style="fill:none;stroke:#263238;stroke-linecap:round;stroke-linejoin:round;stroke-miterlimit:10;" x1="145.017" y1="451.085" x2="140.236" y2="438.275"/>
			
				<line style="fill:none;stroke:#263238;stroke-linecap:round;stroke-linejoin:round;stroke-miterlimit:10;" x1="145.945" y1="447.954" x2="162.516" y2="443.845"/>
			
				<line style="fill:none;stroke:#263238;stroke-linecap:round;stroke-linejoin:round;stroke-miterlimit:10;" x1="106.817" y1="428.249" x2="111.273" y2="421.008"/>
			
				<line style="fill:none;stroke:#263238;stroke-linecap:round;stroke-linejoin:round;stroke-miterlimit:10;" x1="111.273" y1="439.389" x2="95.12" y2="430.477"/>
			
				<line style="fill:none;stroke:#263238;stroke-linecap:round;stroke-linejoin:round;stroke-miterlimit:10;" x1="116.086" y1="453.527" x2="101.247" y2="448.301"/>
			
				<line style="fill:none;stroke:#263238;stroke-linecap:round;stroke-linejoin:round;stroke-miterlimit:10;" x1="114.058" y1="447.744" x2="123.527" y2="431.034"/>
			<path style="fill:#263238;" d="M100.925,415.996c0,0.793,0.643,1.436,1.436,1.436c0.793,0,1.436-0.643,1.436-1.436
				c0-0.793-0.643-1.437-1.436-1.437C101.568,414.559,100.925,415.202,100.925,415.996z"/>
			<path style="fill:#263238;" d="M109.942,420.88c0,0.793,0.643,1.436,1.436,1.436c0.793,0,1.436-0.643,1.436-1.436
				c0-0.793-0.643-1.436-1.436-1.436C110.585,419.444,109.942,420.087,109.942,420.88z"/>
			<path style="fill:#263238;" d="M93.684,430.477c0,0.793,0.643,1.436,1.436,1.436c0.793,0,1.436-0.643,1.436-1.436
				c0-0.793-0.643-1.436-1.436-1.436C94.327,429.041,93.684,429.684,93.684,430.477z"/>
			<path style="fill:#263238;" d="M122.09,431.034c0,0.793,0.643,1.436,1.436,1.436c0.793,0,1.436-0.643,1.436-1.436
				c0-0.793-0.643-1.436-1.436-1.436C122.733,429.598,122.09,430.241,122.09,431.034z"/>
			<path style="fill:#263238;" d="M99.057,448.079c0,0.793,0.643,1.436,1.436,1.436c0.793,0,1.436-0.643,1.436-1.436
				c0-0.793-0.643-1.436-1.436-1.436C99.7,446.642,99.057,447.285,99.057,448.079z"/>
			<path style="fill:#263238;" d="M53.031,448.642c0,0.793,0.643,1.436,1.437,1.436c0.793,0,1.436-0.643,1.436-1.436
				c0-0.793-0.643-1.436-1.436-1.436C53.674,447.206,53.031,447.849,53.031,448.642z"/>
			<path style="fill:#263238;" d="M148.826,434.933c0,0.793,0.643,1.436,1.436,1.436c0.793,0,1.436-0.643,1.436-1.436
				c0-0.793-0.643-1.436-1.436-1.436C149.469,433.497,148.826,434.14,148.826,434.933z"/>
			<path style="fill:#263238;" d="M139.057,438.315c0,0.793,0.643,1.436,1.436,1.436c0.793,0,1.436-0.643,1.436-1.436
				c0-0.793-0.643-1.436-1.436-1.436C139.7,436.878,139.057,437.521,139.057,438.315z"/>
			<path style="fill:#263238;" d="M161.08,443.845c0,0.793,0.643,1.436,1.436,1.436c0.793,0,1.436-0.643,1.436-1.436
				c0-0.793-0.643-1.436-1.436-1.436C161.723,442.409,161.08,443.052,161.08,443.845z"/>
		</g>
	</g>
	<g>
		<path style="fill:#92E3A9;" d="M471.11,456.846c0.996-9.092,4.121-18.876-5.241-19.327c-8.4-0.404-17.635,5.247-24.635,0.585
			c-5.725-3.814-5.849-11.944-6.492-18.793c-0.639-6.801-2.525-13.746-7-18.908c-4.475-5.161-11.98-8.092-18.391-5.732
			c-12.907,4.754-13.708,25.935-26.898,29.834c-9.13,2.699-18.652-4.891-28.022-3.211c-11.477,2.058-16.658,14.751-25.462,20.961
			c-0.91,0.642-4.742,3.411-9.127,6.614c-3.68,2.688-7.746,5.678-10.806,7.977H471.11z"/>
		<path style="opacity:0.4;fill:#FFFFFF;" d="M471.11,456.846c0.996-9.092,4.121-18.876-5.241-19.327
			c-8.4-0.404-17.635,5.247-24.635,0.585c-5.725-3.814-5.849-11.944-6.492-18.793c-0.639-6.801-2.525-13.746-7-18.908
			c-4.475-5.161-11.98-8.092-18.391-5.732c-12.907,4.754-13.708,25.935-26.898,29.834c-9.13,2.699-18.652-4.891-28.022-3.211
			c-11.477,2.058-16.658,14.751-25.462,20.961c-0.91,0.642-4.742,3.411-9.127,6.614c-3.68,2.688-7.746,5.678-10.806,7.977H471.11z"
			/>
		<g>
			
				<line style="fill:none;stroke:#263238;stroke-linecap:round;stroke-linejoin:round;stroke-miterlimit:10;" x1="374.517" y1="456.099" x2="367.276" y2="434.933"/>
			
				<line style="fill:none;stroke:#263238;stroke-linecap:round;stroke-linejoin:round;stroke-miterlimit:10;" x1="400.139" y1="456.656" x2="415.177" y2="415.996"/>
			
				<line style="fill:none;stroke:#263238;stroke-linecap:round;stroke-linejoin:round;stroke-miterlimit:10;" x1="454.724" y1="456.656" x2="463.636" y2="448.301"/>
			
				<line style="fill:none;stroke:#263238;stroke-linecap:round;stroke-linejoin:round;stroke-miterlimit:10;" x1="372.521" y1="451.085" x2="377.302" y2="438.275"/>
			
				<line style="fill:none;stroke:#263238;stroke-linecap:round;stroke-linejoin:round;stroke-miterlimit:10;" x1="371.593" y1="447.954" x2="355.023" y2="443.845"/>
			
				<line style="fill:none;stroke:#263238;stroke-linecap:round;stroke-linejoin:round;stroke-miterlimit:10;" x1="410.722" y1="428.249" x2="406.266" y2="421.008"/>
			
				<line style="fill:none;stroke:#263238;stroke-linecap:round;stroke-linejoin:round;stroke-miterlimit:10;" x1="406.266" y1="439.389" x2="422.418" y2="430.477"/>
			
				<line style="fill:none;stroke:#263238;stroke-linecap:round;stroke-linejoin:round;stroke-miterlimit:10;" x1="401.452" y1="453.527" x2="416.292" y2="448.301"/>
			
				<line style="fill:none;stroke:#263238;stroke-linecap:round;stroke-linejoin:round;stroke-miterlimit:10;" x1="403.481" y1="447.744" x2="394.012" y2="431.034"/>
			<path style="fill:#263238;" d="M416.614,415.996c0,0.793-0.643,1.436-1.437,1.436c-0.793,0-1.436-0.643-1.436-1.436
				c0-0.793,0.643-1.437,1.436-1.437C415.971,414.559,416.614,415.202,416.614,415.996z"/>
			<path style="fill:#263238;" d="M407.596,420.88c0,0.793-0.643,1.436-1.436,1.436c-0.793,0-1.436-0.643-1.436-1.436
				c0-0.793,0.643-1.436,1.436-1.436C406.953,419.444,407.596,420.087,407.596,420.88z"/>
			<path style="fill:#263238;" d="M423.855,430.477c0,0.793-0.643,1.436-1.436,1.436c-0.793,0-1.436-0.643-1.436-1.436
				c0-0.793,0.643-1.436,1.436-1.436C423.212,429.041,423.855,429.684,423.855,430.477z"/>
			<path style="fill:#263238;" d="M395.448,431.034c0,0.793-0.643,1.436-1.437,1.436c-0.793,0-1.436-0.643-1.436-1.436
				c0-0.793,0.643-1.436,1.436-1.436C394.805,429.598,395.448,430.241,395.448,431.034z"/>
			<path style="fill:#263238;" d="M418.481,448.079c0,0.793-0.643,1.436-1.436,1.436c-0.793,0-1.436-0.643-1.436-1.436
				c0-0.793,0.643-1.436,1.436-1.436C417.838,446.642,418.481,447.285,418.481,448.079z"/>
			<path style="fill:#263238;" d="M464.508,448.642c0,0.793-0.643,1.436-1.436,1.436c-0.793,0-1.436-0.643-1.436-1.436
				c0-0.793,0.643-1.436,1.436-1.436C463.865,447.206,464.508,447.849,464.508,448.642z"/>
			<path style="fill:#263238;" d="M368.713,434.933c0,0.793-0.643,1.436-1.437,1.436c-0.793,0-1.436-0.643-1.436-1.436
				c0-0.793,0.643-1.436,1.436-1.436C368.07,433.497,368.713,434.14,368.713,434.933z"/>
			<path style="fill:#263238;" d="M378.482,438.315c0,0.793-0.643,1.436-1.436,1.436c-0.793,0-1.436-0.643-1.436-1.436
				c0-0.793,0.643-1.436,1.436-1.436C377.839,436.878,378.482,437.521,378.482,438.315z"/>
			<path style="fill:#263238;" d="M356.459,443.845c0,0.793-0.643,1.436-1.436,1.436c-0.793,0-1.436-0.643-1.436-1.436
				c0-0.793,0.643-1.436,1.436-1.436C355.816,442.409,356.459,443.052,356.459,443.845z"/>
		</g>
	</g>
</g>
<g id="Floor">
	<polyline style="fill:#92E3A9;stroke:#263238;stroke-linecap:round;stroke-linejoin:round;stroke-miterlimit:10;" points="
		17.337,461.72 39.024,458.64 32.923,457 42.216,456.169 40.225,452.014 46.862,454.507 51.841,451.46 53.168,455.061 
		56.819,452.014 57.151,455.615 61.465,453.399 62.129,456.446 76.068,452.014 75.736,454.507 79.387,453.122 86.688,455.615 
		87.02,452.568 92.662,455.615 92.994,453.399 95.317,455.061 97.972,451.183 101.623,456.169 110.252,452.291 110.252,455.892 
		115.562,453.953 116.226,455.892 120.872,453.953 125.85,455.892 148.086,453.122 147.091,455.338 152.069,454.23 158.375,453.676 
		161.03,455.892 163.685,453.953 167.667,455.892 167.999,452.845 171.318,455.892 175.964,452.291 176.96,455.892 185.921,452.845 
		186.253,456.169 203.842,453.676 202.183,455.892 208.821,455.338 213.467,456.723 218.445,452.845 226.078,455.892 
		226.41,453.953 230.393,455.615 232.052,452.291 234.707,455.615 240.017,453.399 240.681,455.338 245.328,454.23 247.651,456.169 
		255.948,455.061 256.612,457 268.891,454.23 270.219,456.723 275.197,453.122 278.184,455.338 279.511,451.737 283.826,454.784 
		288.804,451.737 287.809,455.338 292.123,453.399 293.782,455.615 299.092,453.953 300.752,455.892 303.407,455.061 
		306.726,455.892 314.359,453.122 317.678,455.338 319.669,453.122 321.992,455.061 323.652,452.568 326.639,456.169 
		330.953,453.676 332.944,456.169 337.259,452.568 338.586,455.892 350.534,454.23 357.835,452.845 356.508,455.892 
		365.469,453.676 369.451,455.615 370.779,452.291 375.425,454.507 377.748,452.291 380.735,454.23 384.386,452.845 
		387.373,455.338 395.338,452.845 397.661,455.338 402.639,453.122 403.635,455.338 409.609,453.953 409.941,456.169 
		414.587,453.676 418.238,454.507 421.557,452.291 423.216,454.507 425.871,452.014 426.867,455.061 434.5,453.122 436.823,455.338 
		442.133,453.122 445.12,455.615 446.448,452.568 453.417,455.892 452.754,452.014 457.732,454.507 457.732,452.014 
		461.051,454.784 463.042,451.183 464.369,454.23 467.127,452.696 468.352,452.014 468.02,455.892 473.994,453.676 473.994,455.892 
		481.627,455.061 479.683,458.64 497.217,460.18 	"/>
</g>
<g id="Characters">
	<g>
		<g>
			<g>
				<path style="fill:#FFFFFF;stroke:#263238;stroke-linecap:round;stroke-linejoin:round;stroke-miterlimit:10;" d="
					M364.168,438.516c0,0-3.468,3.098-5.655,4.192c-2.188,1.094-6.563,3.719-9.845,5.032c-3.282,1.313-7.657,3.063-7.001,4.813
					c0.656,1.75,5.469,3.063,13.564,3.719c8.095,0.656,19.908-1.75,24.284-1.969c4.375-0.219,6.344-1.094,5.469-4.813
					c-0.875-3.719-3.282-13.126-3.282-13.126L364.168,438.516z"/>
				<path style="fill:#FFFFFF;stroke:#263238;stroke-linecap:round;stroke-linejoin:round;stroke-miterlimit:10;" d="
					M384.984,449.489c-0.057-0.244-0.122-0.515-0.191-0.803c-3.864,1.541-11.378,3.871-22.342,4.303
					c-10.191,0.402-16.75-0.838-20.313-1.86c-0.445,0.468-0.649,0.945-0.47,1.422c0.656,1.75,5.469,3.063,13.564,3.719
					c8.095,0.656,19.908-1.75,24.284-1.969C383.89,454.083,385.859,453.208,384.984,449.489z"/>
			</g>
			<path style="fill:#263238;stroke:#263238;stroke-linecap:round;stroke-linejoin:round;stroke-miterlimit:10;" d="M332.41,260.35
				l-0.189,21.284c0,0-5.119,28.833-2.908,44.441s5.061,41.124,7.909,49.033c2.847,7.908,24.158,52.135,24.158,52.135
				s-0.316,4.745-0.316,6.96c0,2.214,1.265,11.072,1.265,11.072s0.949,0.949,4.429,1.265c3.48,0.316,10.756-1.898,10.756-1.898
				s-5.494-52.451-7.708-58.145c-2.214-5.694-7.908-25.624-7.276-31.318c0.633-5.694,17.715-55.676,17.715-55.676
				s8.474-15.111,7.842-25.233c-0.633-10.123-3.163-17.082-3.163-17.082L332.41,260.35z"/>
			<g>
				<path style="fill:#FFFFFF;stroke:#263238;stroke-linecap:round;stroke-linejoin:round;stroke-miterlimit:10;" d="
					M377.513,444.641c0,0-3.468,3.098-5.655,4.192c-2.188,1.094-6.563,3.719-9.845,5.032c-3.282,1.313-7.657,3.063-7.001,4.813
					c0.656,1.75,5.469,3.063,13.564,3.719c8.095,0.656,19.908-1.75,24.284-1.969c4.375-0.219,6.344-1.094,5.469-4.813
					c-0.875-3.719-3.282-13.126-3.282-13.126L377.513,444.641z"/>
				<path style="fill:#FFFFFF;stroke:#263238;stroke-linecap:round;stroke-linejoin:round;stroke-miterlimit:10;" d="
					M398.329,455.615c-0.057-0.244-0.122-0.515-0.191-0.803c-3.864,1.541-11.378,3.871-22.342,4.303
					c-10.191,0.402-16.75-0.838-20.313-1.86c-0.445,0.468-0.649,0.945-0.47,1.422c0.656,1.75,5.469,3.063,13.564,3.719
					c8.094,0.656,19.908-1.75,24.283-1.969C397.235,460.209,399.204,459.334,398.329,455.615z"/>
			</g>
			<path style="fill:#263238;stroke:#263238;stroke-linecap:round;stroke-linejoin:round;stroke-miterlimit:10;" d="
				M359.262,297.794c0,0-6.54,49.792-6.857,58.017c-0.316,8.225,3.796,13.286,7.908,24.674
				c4.112,11.388,14.351,48.971,14.351,50.237c0,1.265-1.898,4.112-1.898,6.01s0,9.806,2.214,10.439c2.214,0.633,0,0,5.061,0
				c5.061,0,4.112,0,10.439-1.265c6.327-1.265,5.378-1.898,5.378-1.898l-1.265-8.225c0,0-4.228-28.726-6.443-42.645
				c-2.214-13.919-8.541-31.001-8.541-31.001s17.715-37.961,19.613-42.389c1.898-4.429,5.694-6.96,5.061-21.511
				c-0.633-14.552-14.001-42.445-14.001-42.445s-13.578,1.214-17.579,2.325c-4.001,1.111-8.978,1.283-8.978,1.283"/>
			<path style="fill:none;stroke:#808080;stroke-linecap:round;stroke-linejoin:round;stroke-miterlimit:10;" d="M358.742,304.239
				c0,0-7.274,44.918-6.336,51.573c0.938,6.654,22.26,74.911,22.26,74.911"/>
			<path style="fill:#263238;stroke:#263238;stroke-linecap:round;stroke-linejoin:round;stroke-miterlimit:10;" d="
				M370.315,118.617c0,0-6.516-5.792-14.189-6.081c-7.674-0.289-12.452-0.289-18.099,10.28c-5.647,10.57-4.054,16.072-2.896,18.967
				c1.158,2.896-2.317,7.674-1.593,14.479c0.724,6.805,5.502,8.687,6.805,12.886c1.303,4.199-2.606,9.556-3.185,11.728
				c-0.579,2.172,63.273,24.614,63.273,24.614s16.506-0.869,18.243-13.031c1.737-12.162-17.809-15.637-18.099-20.56
				s8.977-17.085,2.027-26.062c-6.95-8.977-13.031-3.33-17.52-9.701c-4.488-6.371-6.081-16.361-10.28-18.533
				C370.605,115.432,370.315,118.617,370.315,118.617z"/>
			<path style="fill:#92E3A9;stroke:#263238;stroke-linecap:round;stroke-linejoin:round;stroke-miterlimit:10;" d="
				M346.543,175.842c0,0-18.894,5.113-21.784,10.892c-2.89,5.779-6.891,22.451-6.446,28.675c0.445,6.224,12.159,42.71,12.159,42.71
				s0.341,7.907,3.505,7.399c3.164-0.508,48.065-4.731,52.956-5.62c4.89-0.889,4.155-1.521,3.353-4.104
				c-7.3-23.488,6.034-67.762,5.145-70.874s-8.209-6.855-19.101-8.633s-16.449-1.778-16.449-1.778L346.543,175.842z"/>
			<path style="fill:none;stroke:#263238;stroke-linecap:round;stroke-linejoin:round;stroke-miterlimit:10;" d="M343.151,225.136
				c0,0,11.969,8.891,25.306,12.311"/>
			<path style="fill:none;stroke:#263238;stroke-linecap:round;stroke-linejoin:round;stroke-miterlimit:10;" d="M365.62,241.022
				c1.94,0.721,3.778,1.298,5.231,1.555"/>
			<path style="fill:none;stroke:#263238;stroke-linecap:round;stroke-linejoin:round;stroke-miterlimit:10;" d="M353.069,235.396
				c0,0,4.552,2.341,9.406,4.377"/>
			<path style="fill:none;stroke:#263238;stroke-linecap:round;stroke-linejoin:round;stroke-miterlimit:10;" d="M319.424,206.295
				c0,0,6.891-12.67,9.558-15.338"/>
			<polygon style="fill:#FFFFFF;stroke:#263238;stroke-linecap:round;stroke-linejoin:round;stroke-miterlimit:10;" points="
				344.098,164.949 345.431,195.18 366.548,176.064 366.326,162.949 			"/>
			<g>
				<path style="fill:#FFFFFF;stroke:#263238;stroke-linecap:round;stroke-linejoin:round;stroke-miterlimit:10;" d="
					M372.576,145.841c0,0,3.694-4.433,5.356-1.108c1.662,3.324-0.739,8.126-2.77,9.973c-2.031,1.847-4.617,2.77-4.617,2.77
					L372.576,145.841z"/>
				<path style="fill:#FFFFFF;stroke:#263238;stroke-linecap:round;stroke-linejoin:round;stroke-miterlimit:10;" d="
					M338.779,145.102c0,0-3.694-2.216-4.432,1.293c-0.739,3.509,6.279,11.081,6.279,11.081L338.779,145.102z"/>
				<path style="fill:#FFFFFF;stroke:#263238;stroke-linecap:round;stroke-linejoin:round;stroke-miterlimit:10;" d="
					M368.144,121.277c0,0-19.758,6.927-22.713,8.773c-2.955,1.847-7.761,7.664-7.391,9.695c0.369,2.032,2.401,21.978,4.248,24.194
					c1.847,2.216,7.111,9.562,12.651,7.715c5.541-1.847,13.02-6.791,13.759-9.008c0.739-2.216,6.404-11.677,3.797-19.847
					C369.677,133.973,368.144,121.277,368.144,121.277z"/>
				<path style="fill:#263238;" d="M349.176,142.652c0,1.2-0.551,2.172-1.231,2.172s-1.231-0.972-1.231-2.172
					c0-1.199,0.551-2.172,1.231-2.172S349.176,141.452,349.176,142.652z"/>
				<path style="fill:#263238;" d="M362.569,144.245c0,1.199-0.551,2.172-1.231,2.172c-0.68,0-1.231-0.972-1.231-2.172
					c0-1.2,0.551-2.172,1.231-2.172C362.018,142.073,362.569,143.045,362.569,144.245z"/>
				<path style="fill:none;stroke:#263238;stroke-linecap:round;stroke-linejoin:round;stroke-miterlimit:10;" d="M350.479,152.353
					c0,0,1.593,2.751,6.66,0.724"/>
				<path style="fill:none;stroke:#263238;stroke-linecap:round;stroke-linejoin:round;stroke-miterlimit:10;" d="M347.583,156.117
					c0,0,3.041,2.606,6.516,2.317c3.475-0.29,7.095-2.461,7.095-2.461"/>
				<path style="fill:none;stroke:#263238;stroke-linecap:round;stroke-linejoin:round;stroke-miterlimit:10;" d="M343.24,138.743
					c0,0,2.606-3.33,7.963-1.882"/>
				<path style="fill:none;stroke:#263238;stroke-linecap:round;stroke-linejoin:round;stroke-miterlimit:10;" d="M358.877,138.308
					c0,0,4.633-2.027,7.529,2.751"/>
			</g>
		</g>
		<g>
			<path style="fill:#92E3A9;stroke:#263238;stroke-linecap:round;stroke-linejoin:round;stroke-miterlimit:10;" d="
				M219.499,248.281c0,0-19.442,8.066-21.717,9.1c-2.275,1.034-2.482,2.068-2.482,3.309c0,1.241-3.783,50.184-4.197,53.493
				c-0.414,3.309,4.136,5.998,7.653,5.584c3.516-0.414,8.661-2.818,8.661-2.818l0.085,11.374l55.844-2.689l-2.482-54.512
				l26.712,2.952c0,0,6.664-2.108,6.526-3.726c-0.29-3.414-7.574-8.293-8.111-12.185c-0.368-2.671-1.441-3.018-1.441-3.018
				l-29.891-7.278c0,0-2.275-1.861-11.376-1.655C234.184,246.419,219.499,248.281,219.499,248.281z"/>
			<path style="fill:#FFFFFF;stroke:#263238;stroke-linecap:round;stroke-linejoin:round;stroke-miterlimit:10;" d="M303.61,256.842
				c0,0-8.872,14.69-10.147,14.86c-1.274,0.17-6.407,1.161-8.362-3.766c-1.955-4.927,0.572-12.411,0.572-12.411l20.992-14.656
				c0,0,4.862-4.159,6.171-4.639c1.309-0.48,6.751-1.436,7.716-1.641c0.965-0.205,7.921-0.676,9.021,0.703s0.065,2.204-1.174,2.064
				c-1.239-0.14-5.372,0.336-5.372,0.336s6.747,1.388,8.811,2.562c2.064,1.174,1.855,3.033,0.58,3.203
				c-1.274,0.17-5.268-0.593-5.268-0.593s4.953,3.382,3.884,4.517c-1.069,1.135-4.683-0.214-4.683-0.214s1.44,3.928-0.764,3.993
				c-2.204,0.065-5.093-2.143-5.093-2.143s-3.583,1.165-7.336,1.056c-3.753-0.109-5.612-0.319-5.612-0.319L303.61,256.842z"/>
			<path style="fill:#FFFFFF;stroke:#263238;stroke-linecap:round;stroke-linejoin:round;stroke-miterlimit:10;" d="
				M312.561,238.631l4.091,0.986c0,0,6.368,0.586,6.582,2.186c0.214,1.6,0.688,2.047-1.56,2.188
				c-2.248,0.141-3.545-0.005-3.545-0.005s-2.279,1.582-5.493,2.138c-3.214,0.557-6.454-0.99-6.454-0.99"/>
			<path style="fill:none;stroke:#263238;stroke-linecap:round;stroke-linejoin:round;stroke-miterlimit:10;" d="M281.834,259.719
				c0.169-0.676-3.378,5.067,1.858,10.471"/>
			<path style="fill:none;stroke:#263238;stroke-linecap:round;stroke-linejoin:round;stroke-miterlimit:10;" d="M278.119,266.137
				c0,0,1.351,4.56,5.404,5.742"/>
			<polyline style="fill:none;stroke:#263238;stroke-linecap:round;stroke-linejoin:round;stroke-miterlimit:10;" points="
				262.549,255.537 260.865,271.123 267.202,255.305 			"/>
			<path style="fill:none;stroke:#263238;stroke-linecap:round;stroke-linejoin:round;stroke-miterlimit:10;" d="M195.766,305.951
				c0,0,6.383-4.111,12.117-0.866"/>
			
				<line style="fill:none;stroke:#263238;stroke-linecap:round;stroke-linejoin:round;stroke-miterlimit:10;" x1="207.355" y1="279.304" x2="206.487" y2="272.751"/>
			<path style="fill:none;stroke:#263238;stroke-linecap:round;stroke-linejoin:round;stroke-miterlimit:10;" d="M199.336,301.191
				c0,0,9.953-0.649,11.793,6.6l-3.251-24.54"/>
			<path style="fill:#92E3A9;stroke:#263238;stroke-linecap:round;stroke-linejoin:round;stroke-miterlimit:10;" d="
				M219.706,243.731c0,0-3.102-0.62-3.93,1.655c-0.827,2.275-0.827,9.928-1.655,14.271c-0.827,4.343-1.448,5.998-0.62,6.205
				c0.827,0.207,8.273-6.825,8.273-6.825s1.655,0.621,3.516,1.655c1.861,1.034,4.757,2.275,4.757,2.275s5.791-2.689,7.032-4.137
				c1.241-1.448,1.241-1.448,1.241-1.448s6.618,4.757,8.066,4.757s3.102-0.827,1.861-2.689c-1.241-1.861-3.516-8.273-4.964-13.237
				c-1.448-4.964-2.482-5.791-3.93-5.998C237.907,240.008,219.706,243.731,219.706,243.731z"/>
			<path style="fill:#FFFFFF;stroke:#263238;stroke-linecap:round;stroke-linejoin:round;stroke-miterlimit:10;" d="
				M217.845,238.353c0,0,0.827,9.721,2.482,13.651c1.655,3.93,7.239,9.928,9.721,10.962c2.482,1.034,9.721-12.203,9.928-14.685
				c0.207-2.482,0.827-9.928,0.827-9.928H217.845z"/>
			<g>
				<path style="fill:#263238;stroke:#263238;stroke-linecap:round;stroke-linejoin:round;stroke-miterlimit:10;" d="
					M213.294,194.299c0,0-7.032,2.689-9.514,5.998c-2.482,3.309-3.93,8.48-4.343,9.1c-0.414,0.62-2.689-0.414-3.723,2.275
					c-1.034,2.689,0.827,4.137,1.034,5.584c0.207,1.448-1.448,3.102-0.414,4.757c1.034,1.655,2.068,2.068,3.102,2.275
					c1.034,0.207,0.62,1.655,2.275,2.896c1.655,1.241,2.896,2.482,2.896,2.482l5.791,0.827l-1.448-9.514
					c0,0,8.066-15.305,9.721-17.374c1.655-2.068,10.135,1.655,15.512,5.584c5.378,3.93,7.239,7.446,8.273,8.687
					c1.034,1.241,1.034,1.241,1.034,1.241l1.655,1.241l2.689,4.757c0,0,3.102-2.275,4.757-4.136c1.655-1.862,0.62-4.55,0.62-4.55
					s0.827,0.207,1.241-2.689c0.414-2.896-0.207-2.896-0.62-4.757c-0.414-1.862,2.068-1.862,1.241-4.55
					c-0.827-2.689-2.896-2.689-4.55-3.723c-1.655-1.034,0.414-6.205-2.896-7.653c-3.309-1.448-5.998-0.827-6.619-0.414
					c-0.62,0.414-8.687-8.48-17.58-6.825S213.294,194.299,213.294,194.299z"/>
				<path style="fill:#FFFFFF;stroke:#263238;stroke-linecap:round;stroke-linejoin:round;stroke-miterlimit:10;" d="
					M208.951,220.98c0,0,1.655,12.823,4.137,16.546s9.1,7.239,12.203,8.894c3.103,1.655,7.653,1.448,8.894,0
					c1.241-1.448,10.341-7.859,10.962-9.928c0.62-2.068,0-16.133,0-16.133s0.414-5.791-2.689-10.548
					c-3.102-4.757-18.067-8.094-21.17-7.06c-3.102,1.034-13.784,14.299-13.784,14.299L208.951,220.98z"/>
				<path style="fill:#FFFFFF;stroke:#263238;stroke-linecap:round;stroke-linejoin:round;stroke-miterlimit:10;" d="
					M209.572,223.875c0,0-4.757-4.343-5.378,1.034s7.446,8.687,7.446,8.687L209.572,223.875z"/>
				<path style="fill:#FFFFFF;stroke:#263238;stroke-linecap:round;stroke-linejoin:round;stroke-miterlimit:10;" d="
					M245.146,220.359c0,0,3.102-4.343,4.55-1.861c1.448,2.482,1.655,4.757-0.207,7.859c-1.861,3.102-4.137,5.171-4.137,5.171
					L245.146,220.359z"/>
				<ellipse style="fill:#263238;" cx="221.918" cy="223.725" rx="1.385" ry="2.746"/>
				<path style="fill:#263238;" d="M236.396,222.427c0,1.516-0.62,2.746-1.385,2.746c-0.765,0-1.385-1.229-1.385-2.746
					c0-1.517,0.62-2.746,1.385-2.746C235.776,219.681,236.396,220.911,236.396,222.427z"/>
				<path style="fill:none;stroke:#263238;stroke-linecap:round;stroke-linejoin:round;stroke-miterlimit:10;" d="M225.704,229.459
					c0,0,3.723,2.689,7.446-1.034"/>
				<path style="fill:none;stroke:#263238;stroke-linecap:round;stroke-linejoin:round;stroke-miterlimit:10;" d="M223.015,235.044
					c0,0,2.275,1.448,7.446,1.034c5.171-0.414,7.239-3.93,7.239-3.93"/>
				<path style="fill:none;stroke:#263238;stroke-linecap:round;stroke-linejoin:round;stroke-miterlimit:10;" d="M215.363,221.186
					c0,0,1.241-5.584,8.48-4.343"/>
				<path style="fill:none;stroke:#263238;stroke-linecap:round;stroke-linejoin:round;stroke-miterlimit:10;" d="M231.495,216.016
					c0,0,4.55-2.689,7.859,2.896"/>
			</g>
			<g>
				<path style="fill:#FFFFFF;stroke:#263238;stroke-linecap:round;stroke-linejoin:round;stroke-miterlimit:10;" d="
					M234.151,320.742c0,0,12.181-5.866,14.826-5.077c2.645,0.788,3.986,6.176,3.187,6.474c-0.438,0.163-14.858,4.216-17.135,4.513
					c-1.959,0.255-22.89-1.905-30.449-3.624c-7.56-1.719-10.473-8.119-7.44-10.208c3.033-2.089,11.949-5.465,14.787-4.458
					C214.765,309.368,234.151,320.742,234.151,320.742z"/>
				<path style="fill:none;stroke:#263238;stroke-linecap:round;stroke-linejoin:round;stroke-miterlimit:10;" d="M239.957,318.3
					c0,0,2.118-1.228,2.845-0.161c0.727,1.066,3.418,5.23,3.418,5.23"/>
				<path style="fill:none;stroke:#263238;stroke-linecap:round;stroke-linejoin:round;stroke-miterlimit:10;" d="M245.733,316.622
					c0,0,3.295,2.255,3.972,5.927"/>
				<path style="fill:none;stroke:#263238;stroke-linecap:round;stroke-linejoin:round;stroke-miterlimit:10;" d="M239.131,318.815
					c0,0,3.564,3.28,4.22,5.476"/>
				<path style="fill:#FFFFFF;stroke:#263238;stroke-linecap:round;stroke-linejoin:round;stroke-miterlimit:10;" d="
					M251.458,317.549c0,0,2.81,0.404,5.083,0.32c2.273-0.084,2.322,0.94,1.242,1.893c-1.081,0.953-5.66,1.904-5.66,1.904
					S252.333,318.057,251.458,317.549z"/>
				<path style="fill:none;stroke:#263238;stroke-linecap:round;stroke-linejoin:round;stroke-miterlimit:10;" d="M239.013,323.256
					c0,0,0.07,0.88,1.02,1.691"/>
			</g>
			<g>
				<path style="fill:#FFFFFF;stroke:#263238;stroke-linecap:round;stroke-linejoin:round;stroke-miterlimit:10;" d="
					M208.442,440.262l-1.744,6.781c0,0-6.879,7.178-7.776,10.169c-0.897,2.991,2.094,3.29,3.888,3.589s16.749-0.299,19.74-1.196
					c2.991-0.897,1.967-18.843,1.967-18.843L208.442,440.262z"/>
				<path style="fill:#FFFFFF;stroke:#263238;stroke-linecap:round;stroke-linejoin:round;stroke-miterlimit:10;" d="
					M213.577,456.913c-6.36,1.09-11.603,0.965-14.749,0.7c-0.516,2.613,2.272,2.904,3.982,3.188
					c1.794,0.299,16.749-0.299,19.74-1.196c0.896-0.269,1.43-2.203,1.741-4.772C221.999,455.35,218.533,456.063,213.577,456.913z"/>
			</g>
			<g>
				<path style="fill:#FFFFFF;stroke:#263238;stroke-linecap:round;stroke-linejoin:round;stroke-miterlimit:10;" d="
					M266.405,440.262l1.744,6.781c0,0,6.879,7.178,7.776,10.169c0.897,2.991-2.094,3.29-3.888,3.589s-16.749-0.299-19.74-1.196
					c-2.991-0.897-1.967-18.843-1.967-18.843L266.405,440.262z"/>
				<path style="fill:#FFFFFF;stroke:#263238;stroke-linecap:round;stroke-linejoin:round;stroke-miterlimit:10;" d="
					M261.27,456.913c6.36,1.09,11.603,0.965,14.749,0.7c0.516,2.613-2.272,2.904-3.982,3.188c-1.794,0.299-16.749-0.299-19.74-1.196
					c-0.896-0.269-1.43-2.203-1.741-4.772C252.848,455.35,256.314,456.063,261.27,456.913z"/>
			</g>
			<polygon style="fill:#263238;stroke:#263238;stroke-linecap:round;stroke-linejoin:round;stroke-miterlimit:10;" points="
				207.503,328.323 208.442,440.262 224.517,440.762 235.954,354.015 238.118,354.943 250.174,440.789 266.405,440.262 
				263.347,325.634 			"/>
		</g>
		<g>
			<g>
				<polygon style="fill:#263238;stroke:#263238;stroke-linecap:round;stroke-linejoin:round;stroke-miterlimit:10;" points="
					211.809,405.239 250.872,403.5 224.48,374.648 227.203,371.925 256.055,398.317 257.793,359.254 261.645,359.254 
					263.379,398.212 288.043,374.778 290.766,377.501 268.367,403.535 298.937,405.239 298.937,409.09 268.258,410.799 
					289.949,437.146 287.226,439.869 263.374,416.237 261.645,455.075 257.793,455.075 256.055,416.011 227.203,442.404 
					224.48,439.68 250.872,410.829 211.809,409.09 				"/>
				<path style="fill:#263238;stroke:#263238;stroke-linecap:round;stroke-linejoin:round;stroke-miterlimit:10;" d="
					M255.051,349.983c23.676,0,42.869,25.45,42.869,56.844s-19.193,56.844-42.869,56.844s-42.869-25.45-42.869-56.844
					S231.375,349.983,255.051,349.983z M255.051,454.469c19.843,0,35.929-21.33,35.929-47.641c0-26.311-16.086-47.641-35.929-47.641
					c-19.843,0-35.929,21.33-35.929,47.641C219.122,433.139,235.208,454.469,255.051,454.469z"/>
				<path style="fill:#A3A3A3;stroke:#263238;stroke-linecap:round;stroke-linejoin:round;stroke-miterlimit:10;" d="
					M261.859,355.986c21.176,0,38.343,22.763,38.343,50.842c0,28.079-17.167,50.842-38.343,50.842
					c-21.176,0-38.343-22.763-38.343-50.842C223.517,378.748,240.683,355.986,261.859,355.986z M261.859,453.312
					c19.361,0,35.056-20.812,35.056-46.484s-15.695-46.484-35.056-46.484c-19.361,0-35.056,20.812-35.056,46.484
					S242.498,453.312,261.859,453.312z"/>
			</g>
			<path style="fill:#FFFFFF;stroke:#263238;stroke-linecap:round;stroke-linejoin:round;stroke-miterlimit:10;" d="
				M253.676,338.419h-39.941c-9.167,0-16.625,7.458-16.625,16.624v51.709c0,9.167,7.459,16.625,16.625,16.625h39.941
				c9.167,0,16.624-7.459,16.624-16.625v-51.709C270.3,345.877,262.843,338.419,253.676,338.419z M263.87,406.752
				c0,5.622-4.573,10.195-10.194,10.195h-39.941c-5.622,0-10.195-4.573-10.195-10.195v-51.709c0-5.621,4.573-10.194,10.195-10.194
				h39.941c5.621,0,10.194,4.573,10.194,10.194V406.752z"/>
			<polygon style="fill:#FFFFFF;stroke:#263238;stroke-linecap:round;stroke-linejoin:round;stroke-miterlimit:10;" points="
				271.97,372.218 334.599,372.218 340.905,272.73 303.268,272.73 			"/>
			<g>
				<path style="fill:#92E3A9;stroke:#263238;stroke-linecap:round;stroke-linejoin:round;stroke-miterlimit:10;" d="
					M278.901,315.01c0,0-42.842,10.966-45.138,11.986c-2.295,1.02-7.395,5.355-8.67,6.12c-1.275,0.765-3.825,1.275-3.825,2.55
					c0,1.275,0,1.275,0,1.275l60.694-6.885l0.255-16.576L278.901,315.01z"/>
				<path style="fill:#FFFFFF;stroke:#263238;stroke-linecap:round;stroke-linejoin:round;stroke-miterlimit:10;" d="
					M238.675,325.54c-2.672,0.737-4.487,1.267-4.911,1.455c-2.295,1.02-7.395,5.355-8.67,6.12c-1.275,0.765-3.825,1.275-3.825,2.55
					c0,1.275,0,1.275,0,1.275l18.14-2.058L238.675,325.54z"/>
			</g>
			
				<rect x="177.756" y="453.188" transform="matrix(-1 -1.224647e-16 1.224647e-16 -1 399.7341 911.0575)" style="fill:#A3A3A3;stroke:#263238;stroke-linecap:round;stroke-linejoin:round;stroke-miterlimit:10;" width="44.222" height="4.682"/>
			
				<rect x="206.466" y="455.746" transform="matrix(-1 -1.224647e-16 1.224647e-16 -1 457.1545 916.1742)" style="fill:#A3A3A3;stroke:#263238;stroke-linecap:round;stroke-linejoin:round;stroke-miterlimit:10;" width="44.222" height="4.682"/>
			
				<rect x="217.45" y="358.645" transform="matrix(-1 -1.224647e-16 1.224647e-16 -1 555.3615 738.1077)" style="fill:#263238;stroke:#263238;stroke-linecap:round;stroke-linejoin:round;stroke-miterlimit:10;" width="120.461" height="20.818"/>
			<g>
				<path style="fill:#FFFFFF;stroke:#263238;stroke-linecap:round;stroke-linejoin:round;stroke-miterlimit:10;" d="M210.108,394.2
					h131.887c1.776,0,3.215-1.439,3.215-3.216c0-1.776-1.44-3.215-3.215-3.215H210.108c-1.776,0-3.215,1.439-3.215,3.215
					C206.892,392.761,208.331,394.2,210.108,394.2z"/>
			</g>
			<g>
				<path style="fill:#FFFFFF;stroke:#263238;stroke-linecap:round;stroke-linejoin:round;stroke-miterlimit:10;" d="
					M215.168,419.548c0,0-2.282,16.185-2.282,21.164c0,4.98-0.415,8.715-2.49,9.752c-2.075,1.038-2.905,1.66-7.677,2.905
					c-4.772,1.245-15.977,1.452-20.127,0.415c-4.15-1.038-4.357-3.527-2.075-7.47c2.282-3.942,10.167-9.337,13.28-13.279
					c3.112-3.942,5.395-9.337,5.602-9.96s1.452-4.15,1.452-4.15L215.168,419.548z"/>
				<path style="fill:#263238;stroke:#263238;stroke-linecap:round;stroke-linejoin:round;stroke-miterlimit:10;" d="
					M193.797,433.035c1.981-2.51,3.623-5.604,4.611-7.685c2.357,0.328,6.515,1.111,8.254,2.705c2.49,2.283,3.942,4.772,3.942,4.772
					l2.928-0.303c-0.364,3.319-0.645,6.442-0.645,8.188c0,4.98-0.415,8.715-2.49,9.752c-2.075,1.038-2.905,1.66-7.677,2.905
					c-4.772,1.245-15.977,1.452-20.127,0.415c-4.15-1.038-4.357-3.527-2.075-7.47C182.799,442.372,190.684,436.977,193.797,433.035z
					"/>
			</g>
			<path style="fill:#595959;stroke:#263238;stroke-linecap:round;stroke-linejoin:round;stroke-miterlimit:10;" d="
				M253.318,331.202c0,0-61.612,9.581-65.652,16.585c-4.041,7.003,3.362,70.843,3.362,70.843s9.158,3.232,15.893,3.771
				c6.734,0.539,10.236,0.269,10.236,0.269l-3.093-56.836l19.794,0.269l54.681-7.812
				C288.538,358.292,285.661,334.065,253.318,331.202z"/>
			<g>
				<path style="fill:#FFFFFF;stroke:#263238;stroke-linecap:round;stroke-linejoin:round;stroke-miterlimit:10;" d="
					M250.857,426.603c0,0-1.245,26.559-1.452,28.012c-0.208,1.452-4.98,1.452-8.507,2.282c-3.527,0.83-24.069,0-31.124-1.66
					c-2.44-0.574-7.262-3.735-6.017-7.47c1.245-3.735,7.885-3.32,13.28-3.735c5.395-0.415,11.62-4.98,12.242-5.602
					c0.622-0.622,4.98-9.96,4.98-9.96L250.857,426.603z"/>
				<path style="fill:#263238;stroke:#263238;stroke-linecap:round;stroke-linejoin:round;stroke-miterlimit:10;" d="
					M217.036,444.032c5.395-0.415,11.62-4.98,12.242-5.602c0.27-0.27,1.245-2.184,2.261-4.262c0.901,0.185,2.639,0.715,3.964,2.187
					c1.867,2.075,1.867,6.017,1.867,6.017s8.477-0.547,12.778-1.086c-0.319,6.413-0.646,12.645-0.743,13.328
					c-0.208,1.452-4.98,1.452-8.507,2.283c-3.527,0.83-24.069,0-31.124-1.66c-2.44-0.574-7.262-3.735-6.017-7.47
					C205.001,444.032,211.641,444.447,217.036,444.032z"/>
			</g>
			<path style="fill:#595959;stroke:#263238;stroke-linecap:round;stroke-linejoin:round;stroke-miterlimit:10;" d="
				M306.572,373.864l-62.774-0.734l9.992,56.544c0,0-15.892,1.885-26.667-0.269c0,0-16.993-71.651-14.838-77.846
				c2.155-6.195,72.212-7.812,72.212-7.812S302.901,358.445,306.572,373.864z"/>
			<g>
				<path style="fill:#263238;" d="M351.879,278.323h16.128c2.368,0,4.287-1.92,4.287-4.287c0-2.368-1.92-4.287-4.287-4.287h-16.128
					c-2.368,0-4.287,1.92-4.287,4.287C347.592,276.404,349.512,278.323,351.879,278.323z"/>
			</g>
			<g>
				<path style="fill:#FFFFFF;stroke:#263238;stroke-linecap:round;stroke-linejoin:round;stroke-miterlimit:10;" d="
					M337.316,344.626c1.653,0,3.058-1.266,3.2-2.943l5.473-64.431h5.891c1.776,0,3.215-1.44,3.215-3.216s-1.44-3.215-3.215-3.215
					h-8.845c-1.671,0-3.063,1.279-3.204,2.943l-5.723,67.374c-0.15,1.77,1.162,3.325,2.932,3.476
					C337.132,344.622,337.225,344.626,337.316,344.626z"/>
			</g>
			<g>
				<path style="fill:#FFFFFF;stroke:#263238;stroke-linecap:round;stroke-linejoin:round;stroke-miterlimit:10;" d="
					M251.209,460.783h6.242c1.776,0,3.215-1.439,3.215-3.216v-50.683c0-0.622,0.506-1.127,1.127-1.127h14.647
					c1.776,0,3.215-1.439,3.215-3.215c0-1.776-1.439-3.215-3.215-3.215h-14.647c-4.168,0-7.558,3.39-7.558,7.558v47.468h-3.027
					c-1.776,0-3.215,1.439-3.215,3.215C247.993,459.343,249.433,460.783,251.209,460.783z"/>
			</g>
			<path style="fill:#FFFFFF;stroke:#263238;stroke-linecap:round;stroke-linejoin:round;stroke-miterlimit:10;" d="
				M296.022,272.862l-24.054,53.097c0,0-1.604,2.673-1.069,5.167c0.535,2.495,2.851,4.454,4.633,4.811
				c1.782,0.356,17.105,0.891,17.105,0.891s9.265-69.133,8.909-70.38C301.189,265.201,296.735,271.793,296.022,272.862z"/>
			<g>
				<path style="fill:#92E3A9;stroke:#263238;stroke-linecap:round;stroke-linejoin:round;stroke-miterlimit:10;" d="
					M299.229,250.768l-10.869,6.949c0,0,5.523,9.087,5.523,9.978s-4.633,17.818-5.345,20.134c-0.713,2.316-1.604,5.88-1.604,5.88
					l14.076-32.25L299.229,250.768z"/>
				<polygon style="fill:#92E3A9;stroke:#263238;stroke-linecap:round;stroke-linejoin:round;stroke-miterlimit:10;" points="
					288.361,257.717 287.292,271.081 293.884,267.695 				"/>
			</g>
			<g>
				<path style="fill:#263238;stroke:#263238;stroke-linecap:round;stroke-linejoin:round;stroke-miterlimit:10;" d="
					M283.107,200.747c0,0-3.25-1.462-3.25-4.55s3.087-7.312,4.55-8.612c1.462-1.3,9.099-3.575,19.336-1.95
					c10.237,1.625,14.624,2.6,16.086,6.337s2.437,19.824,2.275,21.936c-0.162,2.112-2.112,5.525-4.55,6.174
					c-2.437,0.65-5.037-2.762-6.012-5.362c-0.975-2.6-3.9-6.499-3.9-8.124c0-1.625,1.95-8.937,0.65-10.237
					c-1.3-1.3-6.499-1.3-8.774,0.162c-2.275,1.462-2.762,1.95-6.5,2.437c-3.737,0.488-7.799-0.65-7.799-0.65L283.107,200.747z"/>
				<path style="fill:#FFFFFF;stroke:#263238;stroke-linecap:round;stroke-linejoin:round;stroke-miterlimit:10;" d="
					M282.132,198.959c0,0-1.3,12.024-0.975,15.599c0.325,3.575-1.137,5.687-0.975,11.049c0.163,5.362,5.037,12.674,6.174,14.949
					c1.137,2.275,2.762,5.525,5.037,6.012c2.275,0.487,5.2,0,5.2,0l6.012,11.862l20.636-20.636l-2.437-8.937
					c0,0,4.712-3.25,5.362-7.637c0.65-4.387,0.487-6.825-1.95-7.475c-2.437-0.65-6.012,0.488-6.012,0.488l-0.812,2.762l-1.787,0.812
					c0,0-1.137-3.575-1.787-4.875c-0.65-1.3-2.6-1.95-2.925-4.875c-0.325-2.925,2.762-6.174,2.762-8.449
					c0-2.275-0.325-6.825-6.662-7.312c-6.337-0.487-11.049,3.412-13.161,3.9c-2.112,0.488-2.762-2.112-5.85-2.925
					C284.894,192.46,282.132,195.872,282.132,198.959z"/>
				<path style="fill:none;stroke:#263238;stroke-linecap:round;stroke-linejoin:round;stroke-miterlimit:10;" d="M286.681,226.095
					c0,0,0.325,2.6,3.087,3.087c2.762,0.487,5.85-0.975,5.85-0.975"/>
				<path style="fill:none;stroke:#263238;stroke-linecap:round;stroke-linejoin:round;stroke-miterlimit:10;" d="M287.981,234.057
					c0,0,6.825,1.787,13.162-2.925"/>
				
					<line style="fill:none;stroke:#263238;stroke-linecap:round;stroke-linejoin:round;stroke-miterlimit:10;" x1="299.518" y1="229.995" x2="302.605" y2="231.945"/>
				<path style="fill:#263238;stroke:#263238;stroke-linecap:round;stroke-linejoin:round;stroke-miterlimit:10;" d="
					M296.593,246.568c0,0,7.799-1.787,9.749-3.087c1.95-1.3,4.387-3.25,4.387-3.25l-11.212,12.187L296.593,246.568z"/>
				<path style="fill:none;stroke:#263238;stroke-linecap:round;stroke-linejoin:round;stroke-miterlimit:10;" d="M305.042,213.421
					c-3.087-3.575-8.449-1.625-8.449-1.625"/>
				<path style="fill:none;stroke:#263238;stroke-linecap:round;stroke-linejoin:round;stroke-miterlimit:10;" d="M287.494,212.446
					c0,0-2.762-2.437-5.85-0.163"/>
				<path style="fill:#263238;" d="M287.169,218.458c0,1.167-0.473,2.112-1.056,2.112c-0.583,0-1.056-0.946-1.056-2.112
					c0-1.167,0.473-2.112,1.056-2.112C286.696,216.346,287.169,217.291,287.169,218.458z"/>
				<ellipse style="fill:#263238;" cx="301.75" cy="218.705" rx="1.258" ry="2.516"/>
			</g>
			<path style="fill:#92E3A9;stroke:#263238;stroke-linecap:round;stroke-linejoin:round;stroke-miterlimit:10;" d="
				M296.735,256.114l-0.535,19.6l-11.225,63.788c0,0-1.604,9.8,1.425,17.461c3.029,7.662,25.327,22.52,25.327,22.52l18.504-21.273
				c0,0,9.8-41.694,11.76-61.828c1.96-20.134,5.345-30.468-1.069-39.377s-15.145-15.323-15.145-15.323L296.735,256.114z"/>
			<polygon style="fill:#92E3A9;stroke:#263238;stroke-linecap:round;stroke-linejoin:round;stroke-miterlimit:10;" points="
				322.927,233.842 296.735,256.114 301.902,263.241 329.341,242.75 			"/>
			<g>
				<path style="fill:#92E3A9;stroke:#263238;stroke-linecap:round;stroke-linejoin:round;stroke-miterlimit:10;" d="
					M322.036,258.074c0,0-13.72,9.622-14.611,15.501c-0.891,5.88-8.018,42.763-8.018,42.763s-35.635,5.345-36.526,5.523
					c-0.891,0.178-3.385,2.851-3.385,5.345s1.069,5.345,1.069,5.345s35.992,7.662,42.228,10.156s8.731,3.564,14.611-0.891
					c5.88-4.454,23.341-50.246,23.876-54.879c0.535-4.633,0-11.938-0.356-13.185"/>
				<path style="fill:none;stroke:#263238;stroke-linecap:round;stroke-linejoin:round;stroke-miterlimit:10;" d="M299.408,317.763
					c0,0-0.891,3.563-0.178,8.731"/>
				<path style="fill:none;stroke:#263238;stroke-linecap:round;stroke-linejoin:round;stroke-miterlimit:10;" d="M297.27,317.585
					c0,0-4.633,9.8-4.276,15.858"/>
				<path style="fill:none;stroke:#263238;stroke-linecap:round;stroke-linejoin:round;stroke-miterlimit:10;" d="M267.514,321.327
					c0,0-4.811,4.454-1.782,11.582"/>
				<path style="fill:#FFFFFF;stroke:#263238;stroke-linecap:round;stroke-linejoin:round;stroke-miterlimit:10;" d="
					M262.881,321.861c0,0-8.196,0.891-11.047,2.316c-2.851,1.425-4.276,4.811-4.811,6.414c-0.535,1.604-0.535,1.604-0.535,1.604
					l14.076,0.356c0,0-1.425-5.167-0.356-7.127C261.278,323.465,262.881,321.861,262.881,321.861z"/>
			</g>
			
				<rect x="276.702" y="353.637" transform="matrix(-1 -1.224647e-16 1.224647e-16 -1 622.3378 731.9855)" style="fill:#FFFFFF;stroke:#263238;stroke-linecap:round;stroke-linejoin:round;stroke-miterlimit:10;" width="68.935" height="24.712"/>
			<g>
				<path style="fill:#FFFFFF;stroke:#263238;stroke-linecap:round;stroke-linejoin:round;stroke-miterlimit:10;" d="
					M290.028,423.378h39.941c9.167,0,16.625-7.459,16.625-16.625v-51.709c0-9.167-7.458-16.624-16.625-16.624h-39.941
					c-9.167,0-16.625,7.458-16.625,16.624v51.709C273.403,415.919,280.862,423.378,290.028,423.378z M329.969,344.85
					c5.621,0,10.194,4.573,10.194,10.194v51.709c0,5.622-4.573,10.195-10.194,10.195h-39.941c-5.622,0-10.195-4.573-10.195-10.195
					v-51.709c0-5.621,4.573-10.194,10.195-10.194H329.969z"/>
			</g>
			<g>
				
					<circle style="fill:#FFFFFF;stroke:#263238;stroke-linecap:round;stroke-linejoin:round;stroke-miterlimit:10;" cx="286.847" cy="450.926" r="12.746"/>
				
					<ellipse transform="matrix(0.7071 -0.7071 0.7071 0.7071 -234.8371 334.9043)" style="fill:#263238;stroke:#263238;stroke-linecap:round;stroke-linejoin:round;stroke-miterlimit:10;" cx="286.847" cy="450.926" rx="8.549" ry="8.549"/>
				<path style="fill:#FFFFFF;stroke:#263238;stroke-linecap:round;stroke-linejoin:round;stroke-miterlimit:10;" d="
					M277.482,434.277h9.885l2.098,16.552c0.141,1.115-0.525,2.174-1.591,2.529l0,0c-1.167,0.389-2.436-0.186-2.914-1.32
					L277.482,434.277z"/>
			</g>
			<g>
				<path style="fill:#FFFFFF;stroke:#263238;stroke-linecap:round;stroke-linejoin:round;stroke-miterlimit:10;" d="
					M278.263,439.054c1.776,0,3.215-1.439,3.215-3.216v-28.875c0-1.776-1.439-3.215-3.215-3.215c-1.776,0-3.215,1.439-3.215,3.215
					v28.875C275.047,437.615,276.486,439.054,278.263,439.054z"/>
			</g>
			<g>
				<polygon style="fill:#263238;stroke:#263238;stroke-linecap:round;stroke-linejoin:round;stroke-miterlimit:10;" points="
					301.311,405.239 340.374,403.5 313.982,374.648 316.705,371.925 345.557,398.317 347.296,359.254 351.147,359.254 
					352.881,398.212 377.546,374.778 380.269,377.501 357.869,403.535 388.44,405.239 388.44,409.09 357.761,410.799 
					379.452,437.146 376.729,439.869 352.876,416.237 351.147,455.075 347.296,455.075 345.557,416.011 316.705,442.404 
					313.982,439.68 340.374,410.829 301.311,409.09 				"/>
				<path style="fill:#263238;stroke:#263238;stroke-linecap:round;stroke-linejoin:round;stroke-miterlimit:10;" d="
					M344.553,349.983c23.676,0,42.869,25.45,42.869,56.844s-19.193,56.844-42.869,56.844c-23.676,0-42.869-25.45-42.869-56.844
					S320.877,349.983,344.553,349.983z M344.553,454.469c19.843,0,35.929-21.33,35.929-47.641c0-26.311-16.086-47.641-35.929-47.641
					c-19.843,0-35.929,21.33-35.929,47.641C308.624,433.139,324.71,454.469,344.553,454.469z"/>
				<path style="fill:#A3A3A3;stroke:#263238;stroke-linecap:round;stroke-linejoin:round;stroke-miterlimit:10;" d="
					M351.362,355.986c21.176,0,38.343,22.763,38.343,50.842c0,28.079-17.167,50.842-38.343,50.842
					c-21.176,0-38.343-22.763-38.343-50.842C313.019,378.748,330.186,355.986,351.362,355.986z M351.362,453.312
					c19.361,0,35.056-20.812,35.056-46.484s-15.695-46.484-35.056-46.484c-19.361,0-35.056,20.812-35.056,46.484
					S332.001,453.312,351.362,453.312z"/>
			</g>
		</g>
		<g>
			<path style="fill:#92E3A9;stroke:#263238;stroke-linecap:round;stroke-linejoin:round;stroke-miterlimit:10;" d="
				M383.846,200.856c0,0,7.087,29.238,7.317,31.895c0.23,2.657,3.455,6.394,3.455,6.394l-17.555,11.116c0,0-7.838,2.242-9.138,5.255
				c0,0-2.821,0.914-0.242,4.93c0,0,3.62,0.579,8.048,5.326l3.89-1.453c0,0,1.078,2.138,3.957,1.888
				c2.879-0.25,7.578-2.665,17.4-7.756c9.822-5.091,18.084-7.592,16.939-13.071s-10.427-43.051-15.739-52.853
				c-5.312-9.803-12.819-13.441-16.622-13.558"/>
			<path style="fill:none;stroke:#263238;stroke-linecap:round;stroke-linejoin:round;stroke-miterlimit:10;" d="M407.525,242.448
				c0.656,0.418,1.261,0.897,1.785,1.447"/>
			<path style="fill:none;stroke:#263238;stroke-linecap:round;stroke-linejoin:round;stroke-miterlimit:10;" d="M396.891,239.618
				c0,0,3.216,0.059,6.605,1.065"/>
			<path style="fill:none;stroke:#263238;stroke-linecap:round;stroke-linejoin:round;stroke-miterlimit:10;" d="M405.152,237.116
				c0,0-6.759-0.753-10.534,2.029"/>
		</g>
		<path style="fill:#FFFFFF;stroke:#263238;stroke-linecap:round;stroke-linejoin:round;stroke-miterlimit:10;" d="M358.024,264.089
			c0,0-7.755,5.239-8.101,6.732c-0.346,1.493-3.458,9.717-2.346,10.162c1.111,0.444,2.223,1.111,3.334,0.889
			c1.112-0.222,2.668-1.556,2.668-1.556s5.335,0.445,7.335,0.667s6.002-0.667,7.335-5.113c1.334-4.446,2.89-7.558,2.89-7.558
			l4.668-3.779c0,0-3.112-4.223-5.335-5.113c-2.223-0.889-2.223-0.889-2.223-0.889L358.024,264.089z"/>
	</g>
</g>
</svg>
