<?xml version="1.0" encoding="UTF-8"?>
<svg id="Calque_1" data-name="Calque 1" xmlns="http://www.w3.org/2000/svg" viewBox="0 0 279.46 361.14">
  <defs>
    <style>
      .cls-1 {
        fill: none;
      }

      .cls-1, .cls-2 {
        stroke-width: 0px;
      }

      .cls-2 {
        fill: #cce3de;
      }
    </style>
  </defs>
  <path class="cls-1" d="M83.98,101.52v259.62H.1V101.52h41.94c-14.03,0-26.44,6.88-34.06,17.45,8.41,9.27,20.56,15.08,34.06,15.08s25.63-5.81,34.05-15.07c-7.61-10.57-20.03-17.46-34.05-17.46h41.94Z"/>
  <path class="cls-2" d="M83.98,143.46v175.74c0,23.16-18.78,41.94-41.94,41.94-11.58,0-22.07-4.7-29.66-12.28-7.59-7.6-12.28-18.08-12.28-29.66v-175.74c0-9.14,2.92-17.6,7.88-24.49,8.41,9.27,20.56,15.08,34.06,15.08s25.63-5.81,34.05-15.07c4.96,6.89,7.89,15.34,7.89,24.48Z"/>
  <path class="cls-2" d="M76.09,118.98c-8.42,9.26-20.56,15.07-34.05,15.07s-25.65-5.81-34.06-15.08c7.62-10.57,20.03-17.45,34.06-17.45s26.44,6.89,34.05,17.46Z"/>
  <circle class="cls-2" cx="42.04" cy="42.04" r="42.04"/>
  <path class="cls-2" d="M157.81,101.53h12.41c20.11,0,36.41,16.3,36.41,36.41v21.57c0,20.11,16.3,36.41,36.41,36.41h0c20.11,0,36.41,16.3,36.41,36.41v92.4c0,20.11-16.3,36.41-36.41,36.41h-12.06c-20.11,0-36.41-16.3-36.41-36.41v-20.27c0-20.11-16.3-36.41-36.41-36.41h-.35c-20.11,0-36.41-16.3-36.41-36.41v-93.69c0-20.11,16.3-36.41,36.41-36.41Z"/>
  <circle class="cls-2" cx="164.02" cy="42.04" r="42.04"/>
</svg>